<svg width="16" height="16" fill="none" xmlns="http://www.w3.org/2000/svg"><g clip-path="url(#a)"><path fill-rule="evenodd" clip-rule="evenodd" d="M2.3 1.3a1 1 0 0 0-1 1v11.4a1 1 0 0 0 1 1h11.4a1 1 0 0 0 1-1V2.3c0-.3-.1-.5-.3-.7a1 1 0 0 0-.3-.2H2.3Zm13.5 13.2a2.3 2.3 0 0 1-2.1 1.5H2.3A2.3 2.3 0 0 1 0 13.7V2.3A2.3 2.3 0 0 1 1.5.2l.4-.2h11.8c.3 0 .6 0 1 .2.2 0 .4.3.6.5.5.5.7 1 .7 1.6v11.8c0 .2 0 .3-.2.4Z" fill="#2D3440"/></g><defs><clipPath id="a"><path fill="#fff" d="M0 0h16v16H0z"/></clipPath></defs></svg>